<?xml version="1.0" encoding="UTF-8"?>
<!DOCTYPE svg PUBLIC "-//W3C//DTD SVG 1.1//EN" "http://www.w3.org/Graphics/SVG/1.1/DTD/svg11.dtd">
<!-- Creator: CorelDRAW 2019 (64-Bit) -->
<svg xmlns="http://www.w3.org/2000/svg" throwIfNamespace="preserve" width="36.3388mm" height="17.9577mm" version="1.1" style="shape-rendering:geometricPrecision; text-rendering:geometricPrecision; image-rendering:optimizeQuality; fill-rule:evenodd; clip-rule:evenodd"
viewBox="0 0 948.61 468.78"
throwifnamespace="http://www.w3.org/1999/xlink"
throwifnamespace="http://www.corel.com/coreldraw/odm/2003">
 <defs>
 
 </defs>
 <g id="Layer_x0020_1">
  <metadata id="CorelCorpID_0Corel-Layer"/>
  <path class="fil0" d="M10.05 204.37c21.35,7.55 89.96,4.83 113.55,-8.85 47.76,-34.06 31.39,-87.59 36.11,-110.85l9.82 -0.19c8.96,32.29 -10.01,106.58 -29.14,121.15 -32.2,24.52 -79.66,11.8 -124.98,16.99l2.34 197.68c10.08,28.85 65.22,14.43 78.99,-2.24 20.78,-25.15 90.59,-174.84 103.04,-181.02 71.93,-5.42 103.55,4.81 146.81,-40.85 14.41,-15.22 27.62,-32.48 33.61,-59.89 2.22,-10.13 3.72,-26.21 4.14,-42.74 -1.28,0.09 -2.58,0.15 -3.88,0.15 -28.82,0 -52.22,-23.25 -52.45,-52.02 -36.35,1.11 -76.53,1.54 -88.61,-10.33 -15.52,-15.26 -12.74,-29.46 -44.95,-30.67 -145.44,-5.45 -223.52,18.81 -184.39,203.7zm172.51 -185.14c9.25,0 16.76,7.5 16.76,16.76 0,9.25 -7.51,16.75 -16.76,16.75 -9.25,0 -16.75,-7.5 -16.75,-16.75 0,-9.26 7.5,-16.76 16.75,-16.76z"/>
  <path class="fil0" d="M385.12 86.33c0.43,-16.95 -0.48,-34.48 -3.3,-44.41 -10.46,-0.89 -26.97,-0.16 -44.53,0.37 0.2,24.42 20.06,44.16 44.53,44.16 1.11,0 2.21,-0.04 3.3,-0.12z"/>
  <circle class="fil0" cx="195.39" cy="30.2" r="6.86"/>
  <path class="fil1" d="M818.67 284.58c5.59,-8.14 13.23,-13.74 21.88,-17.81 15.26,-6.61 31.54,-8.14 48.42,-5.09 10.18,1.53 19.33,6.11 27.56,12.21 12.21,9.16 19.33,21.37 21.88,36.12 1.02,6.11 1.02,12.21 0.51,18.31 -2.04,16.79 -9.16,31.04 -22.9,41.21l-18.91 12.72c-5.09,3.56 -9.67,6.11 -14.33,10.18 -10.26,8.65 -15.35,20.35 -13.82,34.09 1.02,9.67 6.19,16.79 15.35,20.86 3.14,1.53 6.19,1.53 9.75,0 5.6,-2.54 10.68,-6.61 13.23,-12.72 2.54,-6.11 5.09,-12.21 5.59,-18.31 0.51,-5.09 2.63,-7.63 7.21,-9.67 4.58,-2.04 9.67,-2.04 14.25,-1.02 9.67,1.02 14.75,7.63 14.25,16.79 -1.02,11.7 -5.59,21.37 -14.25,29 -19.42,16.28 -41.8,20.35 -65.88,15.26 -14.25,-3.05 -25.95,-11.19 -34.6,-22.89 -10.68,-14.75 -12.72,-31.03 -4.58,-47.82 3.56,-7.12 8.65,-13.23 15.26,-17.81 3.56,-3.05 7.63,-6.11 11.7,-8.65 7.63,-5.09 15.77,-10.18 22.98,-15.26 6.1,-4.07 9.75,-9.67 11.79,-15.77 3.56,-9.16 3.56,-18.31 2.03,-27.47 -0.51,-5.6 -3.05,-10.68 -6.7,-15.26 -5.51,-7.63 -13.23,-11.19 -22.89,-12.21 -3.05,-0.51 -4.58,1.02 -6.11,3.56 -2.54,5.6 -3.56,11.7 -3.56,18.31l1.53 16.28 -0.51 0 0 10.18c0,2.54 -0.51,5.09 -1.02,7.63 -1.02,3.56 -2.54,6.11 -5.09,7.63 -6.1,5.09 -13.23,6.78 -20.86,5.26 -3.05,0 -5.09,-2.2 -6.11,-5.26 -3.05,-11.19 -6.11,-21.88 -8.65,-33.07 -2.04,-10.68 -1.02,-20.35 5.6,-29.51z"/>
  <path class="fil1" d="M613.96 287.12c0.51,-7.63 -3.56,-12.72 -10.17,-15.77 -5.09,-3.05 -11.19,-4.07 -16.79,-4.07 -10.18,-0.51 -14.25,3.05 -15.77,12.21 -2.04,11.19 -3.05,22.38 -3.56,33.07 -0.51,20.77 -0.51,41.63 -1.02,62.49 0,7.12 0.51,14.25 0.51,21.37 0.51,7.63 0,15.26 0.51,22.89 1.02,7.63 2.55,15.26 3.56,23.4 0.51,3.05 3.05,5.09 5.59,6.61 5.6,2.04 10.68,2.54 16.28,1.52 7.12,-1.52 11.7,-5.59 13.23,-12.21 1.53,-6.11 2.55,-11.7 3.05,-17.3 1.02,-17.81 2.03,-35.61 2.54,-53.42 1.02,-18.82 1.53,-37.65 2.03,-54.86l0 -16.28c0,-3.05 -0.51,-6.61 0,-9.67z"/>
  <path class="fil1" d="M619.05 205.21c-2.03,-2.03 -4.58,-4.07 -7.12,-5.59 -4.07,-2.04 -9.16,-3.56 -14.25,-3.56 -2.55,-0.51 -4.58,0 -7.12,0.51 -4.58,1.02 -7.63,4.07 -8.14,8.65 -1.53,8.65 -2.54,16.79 -3.56,25.44l0.51 0 0 5.6c1.02,8.65 4.58,14.75 11.7,19.84 4.07,2.54 8.65,4.07 13.23,5.09 3.05,0.51 6.1,0 8.65,-0.51 4.07,-1.02 5.6,-4.07 3.56,-7.63 -1.53,-3.05 -1.53,-6.1 -1.02,-9.66l3.05 -14.75c1.02,-4.07 2.03,-8.65 3.56,-13.23 1.02,-4.07 -0.51,-7.12 -3.05,-10.18z"/>
  <path class="fil1" d="M573.26 273.21c-1.53,-1.02 -2.03,-2.54 -3.56,-3.05 -2.55,-0.93 -5.09,-1.95 -7.63,-2.46 -4.58,-1.02 -8.65,-1.02 -13.23,-1.53 -3.05,-0.51 -3.56,-0.51 -3.56,-4.07l0 -1.53c0,-6.61 -1.02,-12.72 -1.53,-18.82 -0.51,-4.07 -1.02,-7.63 -2.03,-11.19 -1.53,-5.6 -5.6,-9.67 -10.68,-12.21 -4.07,-2.03 -8.65,-3.56 -13.23,-4.07 -12.72,-1.53 -14.75,4.07 -16.28,12.21 -2.03,11.19 -3.56,21.88 -5.09,33.07 -0.51,3.56 -1.52,4.07 -5.09,3.56 -5,-0.51 -10.09,-0.51 -15.18,-0.51 -2.04,0 -4.58,0.51 -6.61,1.53 -3.05,1.52 -4.07,4.07 -1.52,6.61 2.03,2.12 3.56,4.16 5.6,5.17 3.56,2.03 7.12,3.05 10.68,4.07l6.11 1.53c1.53,0.51 2.04,1.02 2.04,2.54l0 2.55c0,10.17 -2.04,20.35 -2.55,30.52 -0.51,13.23 -1.02,26.46 -2.03,39.68 -0.51,6.61 0,13.74 0,20.35 0,13.74 -0.51,27.48 0.51,40.7 1.02,11.19 3.56,21.37 7.63,32.05 1.02,2.55 2.54,5.6 4.58,7.63 7.12,7.12 15.86,9.67 25.52,9.67 8.65,0 11.7,-3.56 11.7,-11.7 0,-17.3 0,-34.6 1.02,-51.89l1.53 -27.98c1.02,-19.5 2.54,-38.33 3.56,-57.66 0.34,-10.18 1.36,-20.86 1.36,-31.04l0 -2.03c0,-1.02 1.02,-2.04 2.04,-2.04 1.52,0 2.54,0 4.07,-0.51 4.07,-1.52 8.14,0 12.21,0 2.55,0 5.09,-0.51 7.63,-1.02 4.58,-1.02 6.1,-5.6 2.03,-8.14z"/>
  <path class="fil1" d="M474.56 273.21c-1.53,-1.02 -2.04,-2.54 -3.56,-3.05 -2.55,-0.93 -5.09,-1.95 -7.63,-2.46 -4.58,-1.02 -8.65,-1.02 -13.23,-1.53 -3.05,-0.51 -3.56,-0.51 -3.56,-4.07l0 -1.53c0,-6.61 -1.02,-12.72 -1.53,-18.82 -0.51,-4.07 -1.02,-7.63 -2.03,-11.19 -1.53,-5.6 -5.6,-9.67 -10.68,-12.21 -4.07,-2.03 -8.65,-3.56 -13.23,-4.07 -12.72,-1.53 -14.76,4.07 -16.28,12.21 -2.04,11.19 -3.56,21.88 -5.09,33.07 -0.51,3.56 -1.53,4.07 -5.09,3.56 -5,-0.51 -10.09,-0.51 -15.18,-0.51 -2.04,0 -4.58,0.51 -6.61,1.53 -3.05,1.52 -4.07,4.07 -1.53,6.61 2.04,2.12 3.56,4.16 5.6,5.17 3.56,2.03 7.12,3.05 10.68,4.07l6.11 1.53c1.52,0.51 2.03,1.02 2.03,2.54l0 2.55c0,10.17 -2.03,20.35 -2.54,30.52 -0.51,13.23 -1.02,26.46 -2.04,39.68 -0.51,6.61 0,13.74 0,20.35 0,13.74 -0.51,27.48 0.51,40.7 1.02,11.19 3.56,21.37 7.63,32.05 1.02,2.55 2.54,5.6 4.58,7.63 7.12,7.12 15.86,9.67 25.53,9.67 8.65,0 11.7,-3.56 11.7,-11.7 0,-17.3 0,-34.6 1.02,-51.89l1.53 -27.98c1.02,-19.5 2.54,-38.33 3.56,-57.66 0.34,-10.18 1.36,-20.86 1.36,-31.04l0 -2.03c0,-1.02 1.02,-2.04 2.03,-2.04 1.53,0 2.55,0 4.07,-0.51 4.07,-1.52 8.14,0 12.21,0 2.54,0 5.09,-0.51 7.63,-1.02 4.58,-1.02 6.11,-5.6 2.04,-8.14z"/>
  <path class="fil1" d="M296.5 334.77c1.53,-10.68 3.56,-21.37 6.61,-31.54 3.05,-9.16 6.61,-17.81 11.7,-25.44 1.53,-2.54 3.56,-4.58 5.6,-6.61 1.02,-1.02 2.04,-1.02 3.05,0.51 3.05,5.59 4.07,11.19 4.58,16.79 0.51,2.54 0,4.58 0,6.61 0.51,12.72 -3.56,24.42 -11.7,34.08 -3.56,4.07 -7.63,7.63 -12.72,10.18 -1.53,1.02 -3.05,1.53 -4.58,2.04 -1.53,0 -3.05,-1.02 -3.05,-2.04 0,-1.52 0,-3.05 0.51,-4.58zm56.98 95.48c-7.63,-4.58 -15.77,-3.56 -22.38,2.04l-7.63 5.6c-2.04,1.52 -4.07,1.02 -6.11,-1.02 -7.12,-5.6 -12.21,-12.72 -14.75,-21.88 -5.09,-15.18 -7.63,-30.95 -7.63,-47.23 0,-3.05 -0.51,-6.02 0,-9.07 0,-1.52 0.51,-2.03 2.04,-2.03l2.04 0c10.68,2.03 20.35,-0.51 29,-6.61 20.86,-14.25 31.54,-33.58 30.53,-59.02 -0.51,-16.79 -8.14,-30.52 -22.89,-39.17 -21.37,-13.23 -46.81,-9.67 -62.58,8.14 -7.12,7.12 -13.23,15.77 -16.79,25.44 -6.61,17.81 -11.19,36.12 -11.7,54.94 0,8.65 0.51,17.3 1.02,25.86 2.03,16.79 6.11,32.56 13.23,47.23 11.7,23.4 30.02,38.75 55.96,43.84 13.23,2.55 24.42,-1.53 34.6,-9.67 3.05,-2.54 5.09,-5.68 7.63,-8.73 2.04,-2.55 1.53,-4.58 -0.51,-6.61 -1.02,-1.02 -2.04,-1.53 -3.05,-2.04z"/>
  <path class="fil1" d="M686.76 340.1c1.53,-10.68 3.56,-21.37 6.61,-31.54 3.05,-9.16 6.61,-17.81 11.7,-25.44 1.52,-2.55 3.56,-4.58 5.59,-6.61 1.02,-1.02 2.04,-1.02 3.05,0.51 3.05,5.6 4.07,11.19 4.58,16.79 0.51,2.54 0,4.58 0,6.61 0.51,12.72 -3.56,24.42 -11.7,34.09 -3.56,4.07 -7.63,7.63 -12.72,10.18 -1.53,1.02 -3.05,1.52 -4.58,2.03 -1.53,0 -3.05,-1.02 -3.05,-2.03 0,-1.53 0,-3.05 0.51,-4.58zm56.98 95.48c-7.63,-4.58 -15.77,-3.56 -22.38,2.03l-7.63 5.6c-2.04,1.53 -4.07,1.02 -6.11,-1.02 -7.12,-5.6 -12.21,-12.72 -14.75,-21.88 -5.09,-15.18 -7.63,-30.95 -7.63,-47.23 0,-3.05 -0.51,-6.02 0,-9.07 0,-1.53 0.51,-2.04 2.03,-2.04l2.04 0c10.68,2.04 20.35,-0.51 29,-6.61 20.86,-14.24 31.54,-33.58 30.52,-59.01 -0.51,-16.79 -8.14,-30.53 -22.89,-39.18 -21.37,-13.23 -46.81,-9.67 -62.58,8.14 -7.12,7.12 -13.23,15.77 -16.79,25.44 -6.61,17.81 -11.19,36.12 -11.7,54.95 0,8.65 0.51,17.3 1.02,25.86 2.04,16.79 6.11,32.56 13.23,47.23 11.7,23.41 30.02,38.75 55.97,43.84 13.23,2.54 24.42,-1.53 34.59,-9.67 3.05,-2.55 5.09,-5.68 7.63,-8.73 2.03,-2.54 1.52,-4.58 -0.51,-6.61 -1.02,-1.02 -2.04,-1.52 -3.05,-2.03z"/>
  <path class="fil1" d="M796.81 244c-2.03,-2.04 -4.58,-4.07 -7.12,-5.6 -4.07,-2.03 -9.16,-3.56 -14.25,-3.56 -2.55,-0.51 -4.58,0 -7.12,0.51 -4.58,1.02 -7.63,4.07 -8.14,8.65 -1.53,8.65 -2.54,16.79 -3.56,25.44l0.51 0 0 5.6c1.02,8.65 4.58,14.75 11.7,19.84 4.07,2.54 8.65,4.07 13.23,5.09 3.05,0.51 6.1,0 8.65,-0.51 4.07,-1.02 5.6,-4.07 3.56,-7.63 -1.53,-3.05 -1.53,-6.1 -1.02,-9.67l3.05 -14.75c1.02,-4.07 2.03,-8.65 3.56,-13.23 1.02,-4.07 -0.51,-7.12 -3.05,-10.18z"/>
 </g>
</svg>
